# xmcd
#
# Track frame offsets:
#	182
#	13057
#	30600
#	45057
#	59355
#	74382
#	88732
#	108972
#	125227
#	136967
#
# Disc length: 2048 seconds
#
# Revision: 1
# Processed by: cddbd v1.4PL0 Copyright (c) Steve Scherf et al.
# Submitted via: audiograbber 1.80.04
#
DISCID=8407fe0a
DTITLE=Matt King - Hard Country
DYEAR=1999
DGENRE=Country
TTITLE0=Hard Country
TTITLE1=From Your Knees
TTITLE2=Burying Bones By The Dozen
TTITLE3=I Will Come Back Again
TTITLE4=Sweet Perfume
TTITLE5=A Man Can Dream, Can't He
TTITLE6=Memories, Fiddles  And Songs
TTITLE7=The Angels Are Cryin' Again
TTITLE8=Rub It In
TTITLE9=One Door Down
EXTD=Atlantic Records Corporation
EXTT0=
EXTT1=
EXTT2=
EXTT3=
EXTT4=
EXTT5=
EXTT6=
EXTT7=
EXTT8=
EXTT9=
PLAYORDER=
